<?xml version="1.0" encoding="UTF-8"?>
<svg id="Layer_1" data-name="Layer 1" xmlns="http://www.w3.org/2000/svg" viewBox="0 0 775.03 435.95">
  <defs>
    <style>
      .cls-1 {
        fill: #fff;
      }
    </style>
  </defs>
  <g>
    <path class="cls-1" d="M247.05,295.42c0,4.42-1.82,5.98-5.2,5.98h-22.35c-1.82,0-3.12,1.04-3.12,2.86s1.3,2.86,3.12,2.86h76.93c1.82,0,3.12-1.04,3.12-2.86s-1.3-2.86-3.12-2.86h-18.97c-3.38,0-5.2-1.56-5.2-5.98v-39.13h-25.21v39.13Z"/>
    <path class="cls-1" d="M272.26,139.49c0-4.42,1.82-5.98,5.2-5.98h18.97c1.82,0,3.12-1.04,3.12-2.86s-1.3-2.86-3.12-2.86h-45.48c-6.5,0-7.28,1.56-11.96,11.95l-58.17,130.38-58.25-132.72c-3.9-8.58-5.2-9.62-11.18-9.62h-50.42c-1.82,0-3.12,1.04-3.12,2.86s1.3,2.86,3.12,2.86h19.23c3.12,0,4.94,1.56,4.94,5.98v66.53c0,88.88-5.98,95.38-16.63,95.38h-7.54c-1.82,0-3.12,1.04-3.12,2.86s1.3,2.86,3.12,2.86h56.66c1.82,0,3.12-1.04,3.12-2.86s-1.3-2.86-3.12-2.86h-9.62c-10.66,0-16.63-6.5-16.63-95.38v-70.43h.78l75.63,170.75h3.64l74.85-170.75h.78v53.11h25.21v-49.21Z"/>
    <path class="cls-1" d="M420.91,129.87c30.67,0,48.6,16.89,54.32,46,.78,3.38,2.08,4.42,3.64,4.42s2.86-1.04,2.86-3.64c0-6.24-1.56-15.33-1.56-42.36,0-3.12-1.82-4.42-4.16-4.42-2.6,0-4.16.78-6.76.78-11.96,0-23.13-6.76-46.52-6.76-38.9,0-82.56,18.57-95.48,64.8h28.78c9.02-41.4,37.38-58.83,64.88-58.83Z"/>
    <path class="cls-1" d="M455.99,268.13c0,12.21-.26,17.41-4.42,23.91-4.94,8.32-17.41,13.51-34.04,13.51-30.11,0-51.75-14.67-60.35-49.26h-27.63c13.57,38.22,48,55.76,85.11,55.76,25.73,0,40.54-15.33,53.02-15.33,5.98,0,8.84,4.94,11.43,4.94,2.08,0,3.64-1.56,3.64-3.64,0-1.82-1.56-3.64-1.56-10.65v-31.07h-25.21v11.84Z"/>
    <path class="cls-1" d="M622.32,123.9c-41.43,0-79.42,21.52-91.14,64.8h28.14c7.26-43.11,31.6-58.83,62.99-58.83,37.42,0,65.23,22.61,65.23,88.1s-27.81,88.1-65.23,88.1c-29.35,0-52.54-12.3-61.37-49.78h-26.83c14.29,37.24,49.77,55.76,88.2,55.76,49.64,0,94.86-31.19,94.86-94.08s-45.22-94.08-94.86-94.08Z"/>
  </g>
  <path class="cls-1" d="M272.4,247.26h-25.27v-49.99h27.23c13.71,0,24.71,8.5,24.71,18.85,0,5.43-2.98,10.28-7.74,13.71l12.78,17.43h-25.27l-6.44-9.28v9.28Z"/>
  <path class="cls-1" d="M357.24,247.26h-29.99l39.51-49.99,39.4,49.99h-29.99l-6.31-9.14h-6.31l-6.31,9.14Z"/>
  <path class="cls-1" d="M432.28,247.26v-49.99h29.22c22.74,0,38.89,11.21,38.89,24.43,0,14.36-16.14,25.57-38.89,25.57h-29.22Z"/>
  <path class="cls-1" d="M559.91,247.26h-28.74v-49.99h28.74v49.99Z"/>
</svg>